<?xml version="1.0" encoding="utf-8"?>
<!-- Generator: Adobe Illustrator 16.0.0, SVG Export Plug-In . SVG Version: 6.00 Build 0)  -->
<!DOCTYPE svg PUBLIC "-//W3C//DTD SVG 1.1//EN" "http://www.w3.org/Graphics/SVG/1.1/DTD/svg11.dtd">
<svg version="1.1" id="Layer_1" xmlns="http://www.w3.org/2000/svg" xmlns:xlink="http://www.w3.org/1999/xlink" x="0px" y="0px"
	 width="88px" height="88px" viewBox="-19 -19 88 88" enable-background="new -19 -19 88 88" xml:space="preserve">
<circle fill="#E4FFEE" cx="25" cy="25" r="43.938"/>
<path fill="none" stroke="#40975F" stroke-width="1.5" stroke-miterlimit="10" d="M20.442-0.187
	c-0.607-0.638-1.52-0.881-2.369-0.658c-0.852,0.223-1.51,0.901-1.732,1.753l-1.6,6.33l-6.28-1.773c-0.851-0.244-1.762,0-2.38,0.618
	C5.463,6.701,5.22,7.611,5.463,8.462l1.773,6.28l-6.331,1.611c-0.851,0.213-1.518,0.881-1.752,1.731
	c-0.232,0.849,0.02,1.751,0.659,2.358L4.491,25l-4.678,4.558c-0.638,0.607-0.882,1.519-0.658,2.369
	c0.223,0.851,0.901,1.51,1.753,1.733l6.33,1.599l-1.773,6.28c-0.244,0.85,0,1.763,0.618,2.381c0.618,0.617,1.529,0.86,2.38,0.617
	l6.28-1.774l1.6,6.33c0.212,0.854,0.882,1.521,1.732,1.753c0.85,0.234,1.753-0.021,2.37-0.646l4.556-4.681l4.558,4.678
	c0.618,0.629,1.518,0.883,2.369,0.648c0.851-0.231,1.51-0.899,1.733-1.752l1.599-6.331l6.279,1.774c0.852,0.244,1.764,0,2.381-0.618
	c0.618-0.618,0.861-1.53,0.618-2.381l-1.773-6.28l6.331-1.599c0.852-0.215,1.52-0.883,1.753-1.732
	c0.232-0.853-0.021-1.752-0.648-2.37L45.519,25l4.68-4.558c0.628-0.618,0.88-1.52,0.646-2.369c-0.231-0.852-0.901-1.51-1.753-1.732
	l-6.33-1.6l1.773-6.28c0.244-0.851,0-1.762-0.618-2.38c-0.618-0.618-1.529-0.861-2.381-0.618l-6.278,1.773l-1.611-6.331
	c-0.213-0.85-0.881-1.518-1.731-1.752c-0.849-0.232-1.752,0.02-2.358,0.659l-4.558,4.678L20.442-0.187z"/>
<path fill="none" stroke="#40975F" stroke-width="1.5" stroke-miterlimit="10" d="M35.133,17.888c0.59,0.591,0.59,1.549,0,2.139
	L23.048,32.109c-0.59,0.593-1.548,0.593-2.139,0l-6.042-6.041c-0.59-0.589-0.59-1.548,0-2.138c0.59-0.59,1.548-0.59,2.139,0
	l4.976,4.97L33,17.888c0.59-0.59,1.547-0.59,2.137,0H35.133z"/>
</svg>
