<?xml version="1.0" encoding="utf-8"?>
<!-- Generator: Adobe Illustrator 16.0.0, SVG Export Plug-In . SVG Version: 6.00 Build 0)  -->
<!DOCTYPE svg PUBLIC "-//W3C//DTD SVG 1.1//EN" "http://www.w3.org/Graphics/SVG/1.1/DTD/svg11.dtd">
<svg version="1.1" id="Layer_1" xmlns="http://www.w3.org/2000/svg" xmlns:xlink="http://www.w3.org/1999/xlink" x="0px" y="0px"
	 width="80px" height="80px" viewBox="27.5 -17.5 80 80" enable-background="new 27.5 -17.5 80 80" xml:space="preserve">
<path fill="none" stroke="#F55767" stroke-miterlimit="10" d="M90,22.5C90,34.928,79.928,45,67.5,45C55.072,45,45,34.928,45,22.5
	C45,10.072,55.072,0,67.5,0C79.928,0,90,10.072,90,22.5z M73.125,30.938c0-2.363-1.45-4.386-3.516-5.211V7.734
	c0-1.169-0.94-2.109-2.109-2.109s-2.109,0.94-2.109,2.109v17.991c-2.065,0.836-3.516,2.856-3.516,5.213
	c0,3.103,2.522,5.625,5.625,5.625C70.604,36.563,73.125,34.04,73.125,30.938z M57.656,15.469c1.556,0,2.813-1.257,2.813-2.813
	c0-1.556-1.257-2.813-2.813-2.813c-1.556,0-2.813,1.257-2.813,2.813C54.843,14.212,56.101,15.469,57.656,15.469z M56.25,22.5
	c0-1.556-1.257-2.813-2.813-2.813s-2.813,1.257-2.813,2.813c0,1.557,1.257,2.813,2.813,2.813S56.25,24.057,56.25,22.5z
	 M81.563,25.313c1.557,0,2.813-1.256,2.813-2.813c0-1.556-1.257-2.813-2.813-2.813c-1.556,0-2.813,1.257-2.813,2.813
	C78.75,24.057,80.007,25.313,81.563,25.313z M80.156,12.656c0-1.556-1.258-2.813-2.813-2.813s-2.813,1.257-2.813,2.813
	c0,1.556,1.258,2.813,2.813,2.813S80.156,14.212,80.156,12.656z"/>
</svg>
