<?xml version="1.0" encoding="utf-8"?>
<!-- Generator: Adobe Illustrator 16.0.0, SVG Export Plug-In . SVG Version: 6.00 Build 0)  -->
<!DOCTYPE svg PUBLIC "-//W3C//DTD SVG 1.1//EN" "http://www.w3.org/Graphics/SVG/1.1/DTD/svg11.dtd">
<svg version="1.1" id="Layer_1" xmlns="http://www.w3.org/2000/svg" xmlns:xlink="http://www.w3.org/1999/xlink" x="0px" y="0px"
	 width="40px" height="40px" viewBox="0 0 40 40" enable-background="new 0 0 40 40" xml:space="preserve">
<path fill="#273043" d="M13.586,31.047c0,0.156-0.18,0.281-0.406,0.281c-0.258,0.023-0.438-0.102-0.438-0.281
	c0-0.156,0.18-0.281,0.406-0.281C13.383,30.742,13.586,30.867,13.586,31.047z M11.156,30.695c-0.055,0.156,0.102,0.336,0.336,0.383
	c0.203,0.078,0.438,0,0.484-0.156s-0.102-0.336-0.336-0.406C11.438,30.461,11.211,30.539,11.156,30.695z M14.609,30.563
	c-0.227,0.055-0.383,0.203-0.359,0.383c0.023,0.156,0.227,0.258,0.461,0.203c0.227-0.055,0.383-0.203,0.359-0.359
	C15.047,30.641,14.836,30.539,14.609,30.563z M19.75,0.625c-10.836,0-19.125,8.227-19.125,19.063
	c0,8.664,5.453,16.078,13.242,18.688c1,0.18,1.352-0.438,1.352-0.945c0-0.484-0.023-3.156-0.023-4.797c0,0-5.469,1.172-6.617-2.328
	c0,0-0.891-2.273-2.172-2.859c0,0-1.789-1.227,0.125-1.203c0,0,1.945,0.156,3.016,2.016c1.711,3.016,4.578,2.148,5.695,1.633
	c0.18-1.25,0.688-2.117,1.25-2.633c-4.367-0.484-8.773-1.117-8.773-8.633c0-2.148,0.594-3.227,1.844-4.602
	c-0.203-0.508-0.867-2.602,0.203-5.305c1.633-0.508,5.391,2.109,5.391,2.109c1.563-0.438,3.242-0.664,4.906-0.664
	s3.344,0.227,4.906,0.664c0,0,3.758-2.625,5.391-2.109c1.07,2.711,0.406,4.797,0.203,5.305c1.25,1.383,2.016,2.461,2.016,4.602
	c0,7.539-4.602,8.141-8.969,8.633c0.719,0.617,1.328,1.789,1.328,3.625c0,2.633-0.023,5.891-0.023,6.531
	c0,0.508,0.359,1.125,1.352,0.945c7.813-2.594,13.109-10.008,13.109-18.672C39.375,8.852,30.586,0.625,19.75,0.625z M8.219,27.57
	c-0.102,0.078-0.078,0.258,0.055,0.406c0.125,0.125,0.305,0.18,0.406,0.078c0.102-0.078,0.078-0.258-0.055-0.406
	C8.5,27.523,8.32,27.469,8.219,27.57z M7.375,26.938c-0.055,0.102,0.023,0.227,0.18,0.305c0.125,0.078,0.281,0.055,0.336-0.055
	c0.055-0.102-0.023-0.227-0.18-0.305C7.555,26.836,7.43,26.859,7.375,26.938z M9.906,29.719c-0.125,0.102-0.078,0.336,0.102,0.484
	c0.18,0.18,0.406,0.203,0.508,0.078c0.102-0.102,0.055-0.336-0.102-0.484C10.242,29.617,10.008,29.594,9.906,29.719z M9.016,28.57
	c-0.125,0.078-0.125,0.281,0,0.461s0.336,0.258,0.438,0.18c0.125-0.102,0.125-0.305,0-0.484C9.344,28.547,9.141,28.469,9.016,28.57z
	"/>
</svg>
