<?xml version="1.0" encoding="utf-8"?>
<!-- Generator: Adobe Illustrator 16.0.0, SVG Export Plug-In . SVG Version: 6.00 Build 0)  -->
<!DOCTYPE svg PUBLIC "-//W3C//DTD SVG 1.1//EN" "http://www.w3.org/Graphics/SVG/1.1/DTD/svg11.dtd">
<svg version="1.1" id="Layer_1" xmlns="http://www.w3.org/2000/svg" xmlns:xlink="http://www.w3.org/1999/xlink" x="0px" y="0px"
	 width="88px" height="88px" viewBox="-19 -19 88 88" enable-background="new -19 -19 88 88" xml:space="preserve">
<circle fill="#E4FFEE" cx="25" cy="25" r="43.938"/>
<path fill="none" stroke="#40975F" stroke-width="1.5" stroke-miterlimit="10" d="M22.99,12.87V8.02h4.02v4.851H22.99z M22.32,2.359
	c-2.217,0-4.017,2.173-4.017,4.852v0.403H8.388C7.516,5.462,5.683,3.976,3.565,3.976c-2.958,0-5.36,2.901-5.36,6.469
	s2.402,6.471,5.36,6.471c2.117,0,3.951-1.487,4.822-3.639h5.601c-4.929,4.002-8.28,10.61-8.708,18.191H4.905
	c-2.219,0-4.02,2.173-4.02,4.852v6.47c0,2.678,1.8,4.852,4.02,4.852h5.359c2.22,0,4.02-2.176,4.02-4.852v-6.47
	c0-2.679-1.8-4.852-4.02-4.852H9.988c0.495-6.77,4.061-12.472,9-15.069c0.72,1.284,1.943,2.132,3.331,2.132h5.358
	c1.393,0,2.605-0.849,3.334-2.132c4.941,2.597,8.506,8.299,9,15.069h-0.275c-2.219,0-4.02,2.173-4.02,4.852v6.47
	c0,2.678,1.801,4.852,4.02,4.852h5.359c2.217,0,4.018-2.176,4.018-4.852v-6.47c0-2.679-1.801-4.852-4.018-4.852h-0.377
	c-0.42-7.581-3.777-14.189-8.705-18.191h5.6c0.869,2.152,2.703,3.639,4.824,3.639c2.955,0,5.357-2.903,5.357-6.471
	s-2.402-6.469-5.357-6.469c-2.121,0-3.955,1.486-4.824,3.638h-9.912V7.211c0-2.678-1.803-4.852-4.023-4.852H22.32z M5.574,37.128
	h4.02v4.852h-4.02V37.128z M40.406,41.979v-4.852h4.018v4.852H40.406z"/>
</svg>
