<?xml version="1.0" encoding="utf-8"?>
<!-- Generator: Adobe Illustrator 16.0.0, SVG Export Plug-In . SVG Version: 6.00 Build 0)  -->
<!DOCTYPE svg PUBLIC "-//W3C//DTD SVG 1.1//EN" "http://www.w3.org/Graphics/SVG/1.1/DTD/svg11.dtd">
<svg version="1.1" id="Layer_1" xmlns="http://www.w3.org/2000/svg" xmlns:xlink="http://www.w3.org/1999/xlink" x="0px" y="0px"
	 width="88px" height="88px" viewBox="0 0 88 88" enable-background="new 0 0 88 88" xml:space="preserve">
<circle fill="#FFF6D3" cx="44" cy="44" r="43.959"/>
<path fill="none" stroke="#000000" stroke-width="1.8" stroke-miterlimit="10" d="M27.041,65.584
	c-7.66,0-13.875-6.215-13.875-13.875c0-6.053,3.874-11.197,9.27-13.096c-0.01-0.26-0.02-0.52-0.02-0.78
	c0-8.518,6.899-15.417,15.417-15.417c5.714,0,10.696,3.103,13.364,7.728c1.465-0.982,3.238-1.561,5.137-1.561
	c5.105,0,9.25,4.143,9.25,9.25c0,1.175-0.223,2.293-0.617,3.333c5.627,1.137,9.867,6.119,9.867,12.083
	c0,6.813-5.521,12.334-12.334,12.334L27.041,65.584L27.041,65.584z M34.653,44.674c-0.905,0.906-0.905,2.371,0,3.268
	c0.906,0.896,2.37,0.906,3.267,0l3.758-3.758v12.92c0,1.283,1.03,2.313,2.313,2.313c1.28,0,2.313-1.028,2.313-2.313v-12.92
	l3.758,3.758c0.905,0.906,2.371,0.906,3.266,0c0.896-0.905,0.906-2.371,0-3.268l-7.707-7.708c-0.906-0.906-2.371-0.906-3.268,0
	l-7.708,7.708H34.653z"/>
</svg>
