<?xml version="1.0" encoding="utf-8"?>
<!-- Generator: Adobe Illustrator 16.0.0, SVG Export Plug-In . SVG Version: 6.00 Build 0)  -->
<!DOCTYPE svg PUBLIC "-//W3C//DTD SVG 1.1//EN" "http://www.w3.org/Graphics/SVG/1.1/DTD/svg11.dtd">
<svg version="1.1" id="Layer_1" xmlns="http://www.w3.org/2000/svg" xmlns:xlink="http://www.w3.org/1999/xlink" x="0px" y="0px"
	 width="88px" height="88px" viewBox="0 0 88 88" enable-background="new 0 0 88 88" xml:space="preserve">
<circle fill="#FDEEE4" cx="44" cy="44" r="43.938"/>
<circle fill="none" stroke="#000000" stroke-width="1.8" stroke-miterlimit="10" cx="38.15" cy="34.005" r="9.995"/>
<path fill="none" stroke="#000000" stroke-width="1.8" stroke-miterlimit="10" d="M34.582,47.748
	c-7.692,0-13.924,6.231-13.924,13.924c0,1.28,1.039,2.318,2.319,2.318h22.888c-0.242-0.687-0.289-1.437-0.109-2.171l1.172-4.692
	c0.218-0.883,0.671-1.679,1.313-2.319l3.146-3.146c-2.506-2.421-5.911-3.912-9.674-3.912L34.582,47.748L34.582,47.748z"/>
<path fill="none" stroke="#000000" stroke-width="1.8" stroke-miterlimit="10" d="M53.853,57.285
	c-0.624,0.659-0.655,1.679-0.082,2.379l2.614,3.181c0.519,0.627,1.391,0.834,2.134,0.502c10.183-4.567,14.737-16.527,10.172-26.713
	c-0.335-0.739-1.121-1.167-1.93-1.043l-4.063,0.637c-0.898,0.139-1.552,0.922-1.522,1.831l0.125,4.688
	c0.021,0.796,0.562,1.489,1.333,1.691l2.774,0.753c-0.072,3.515-1.368,6.911-3.646,9.582l-2.573-1.285
	c-0.713-0.357-1.572-0.203-2.118,0.379l-3.214,3.417L53.853,57.285z"/>
</svg>
