<?xml version="1.0" encoding="utf-8"?>
<!-- Generator: Adobe Illustrator 16.0.0, SVG Export Plug-In . SVG Version: 6.00 Build 0)  -->
<!DOCTYPE svg PUBLIC "-//W3C//DTD SVG 1.1//EN" "http://www.w3.org/Graphics/SVG/1.1/DTD/svg11.dtd">
<svg version="1.1" id="Layer_1" xmlns="http://www.w3.org/2000/svg" xmlns:xlink="http://www.w3.org/1999/xlink" x="0px" y="0px"
	 width="88px" height="88px" viewBox="-19 -19 88 88" enable-background="new -19 -19 88 88" xml:space="preserve">
<circle fill="#F4F4FF" cx="25" cy="25" r="43.938"/>
<path fill="none" stroke="#2563FF" stroke-width="1.5" stroke-miterlimit="10" d="M-1.646,11.716c0-2.451,1.99-4.44,4.441-4.44
	h8.883c2.451,0,4.44,1.99,4.44,4.44v1.481h17.765v-1.481c0-2.451,1.989-4.44,4.439-4.44h8.883c2.452,0,4.439,1.99,4.439,4.44v8.883
	c0,2.451-1.988,4.441-4.439,4.441h-8.883c-2.451,0-4.439-1.991-4.439-4.441v-1.48H16.118v1.48c0,0.157-0.009,0.314-0.028,0.463
	l7.432,9.899h8.88c2.453,0,4.441,1.99,4.441,4.44v8.882c0,2.453-1.988,4.441-4.441,4.441h-8.88c-2.453,0-4.442-1.989-4.442-4.441
	v-8.882c0-0.157,0.009-0.313,0.027-0.464l-7.429-9.897H2.796c-2.451,0-4.441-1.991-4.441-4.441V11.716z"/>
</svg>
