<?xml version="1.0" encoding="utf-8"?>
<!-- Generator: Adobe Illustrator 16.0.0, SVG Export Plug-In . SVG Version: 6.00 Build 0)  -->
<!DOCTYPE svg PUBLIC "-//W3C//DTD SVG 1.1//EN" "http://www.w3.org/Graphics/SVG/1.1/DTD/svg11.dtd">
<svg version="1.1" id="Layer_1" xmlns="http://www.w3.org/2000/svg" xmlns:xlink="http://www.w3.org/1999/xlink" x="0px" y="0px"
	 width="88px" height="88px" viewBox="-19 -19 88 88" enable-background="new -19 -19 88 88" xml:space="preserve">
<circle fill="#FFECEF" cx="25" cy="25" r="43.938"/>
<path fill="none" stroke="#F55767" stroke-width="1.5" stroke-miterlimit="10" d="M10.785-3.43c-3.919,0-7.107,3.188-7.107,7.107
	v42.647c0,3.922,3.188,7.105,7.107,7.105h28.431c3.922,0,7.106-3.184,7.106-7.105V14.338H32.109c-1.965,0-3.553-1.587-3.553-3.555
	V-3.43H10.785z M32.109-3.43v14.215h14.213L32.109-3.43z M10.785,5.453c0-0.976,0.802-1.776,1.776-1.776h7.109
	c0.978,0,1.775,0.8,1.775,1.776c0,0.978-0.798,1.778-1.775,1.778h-7.109C11.587,7.231,10.785,6.431,10.785,5.453z M10.785,12.561
	c0-0.977,0.802-1.776,1.776-1.776h7.109c0.978,0,1.775,0.8,1.775,1.776c0,0.978-0.798,1.777-1.775,1.777h-7.109
	C11.587,14.338,10.785,13.539,10.785,12.561z M25.001,20.556c0.976,0,1.779,0.801,1.779,1.778v1.919
	c0.941,0.134,1.854,0.345,2.676,0.569c0.942,0.255,1.51,1.219,1.253,2.176c-0.255,0.955-1.218,1.51-2.176,1.254
	c-1.232-0.334-2.443-0.576-3.564-0.586c-0.935-0.014-1.933,0.199-2.621,0.609c-0.633,0.377-0.9,0.811-0.9,1.422
	c0,0.41,0.145,0.723,0.812,1.121c0.768,0.455,1.845,0.789,3.242,1.211l0.056,0.012l0,0l0,0c1.256,0.377,2.811,0.844,4.032,1.619
	c1.343,0.844,2.485,2.188,2.521,4.244c0.033,2.143-1.065,3.697-2.544,4.621c-0.855,0.531-1.822,0.842-2.786,1.01v1.898
	c0,0.977-0.803,1.779-1.78,1.779c-0.976,0-1.776-0.803-1.776-1.779v-1.979c-1.244-0.23-2.409-0.631-3.432-0.988l0,0
	c-0.233-0.076-0.467-0.152-0.688-0.23c-0.933-0.313-1.433-1.32-1.122-2.244c0.311-0.92,1.32-1.432,2.244-1.121
	c0.276,0.09,0.532,0.176,0.787,0.268l0,0l0,0l0,0c1.512,0.514,2.733,0.932,4.031,0.967c1.011,0.033,1.989-0.189,2.633-0.59
	c0.564-0.357,0.879-0.809,0.867-1.555c-0.012-0.508-0.203-0.867-0.855-1.287c-0.755-0.477-1.833-0.824-3.221-1.242l-0.177-0.057l0,0
	c-1.222-0.367-2.7-0.813-3.865-1.521c-1.333-0.799-2.511-2.1-2.521-4.145c-0.011-2.154,1.199-3.642,2.644-4.497
	c0.833-0.489,1.755-0.8,2.677-0.966v-1.911C23.225,21.357,24.024,20.556,25.001,20.556z"/>
</svg>
