<?xml version="1.0" encoding="utf-8"?>
<!-- Generator: Adobe Illustrator 16.0.0, SVG Export Plug-In . SVG Version: 6.00 Build 0)  -->
<!DOCTYPE svg PUBLIC "-//W3C//DTD SVG 1.1//EN" "http://www.w3.org/Graphics/SVG/1.1/DTD/svg11.dtd">
<svg version="1.1" id="Layer_1" xmlns="http://www.w3.org/2000/svg" xmlns:xlink="http://www.w3.org/1999/xlink" x="0px" y="0px"
	 width="88px" height="88px" viewBox="-19 -19 88 88" enable-background="new -19 -19 88 88" xml:space="preserve">
<circle fill="#FFECEF" cx="24.959" cy="25.042" r="43.959"/>
<path fill="none" stroke="#000000" stroke-width="1.8" stroke-miterlimit="10" d="M21.415,25.219c-0.936-0.937-2.455-0.937-3.393,0
	l-5.757,5.757c-0.933,0.934-0.933,2.454,0,3.391l5.757,5.758c0.479,0.477,1.089,0.706,1.703,0.706c0.61,0,1.225-0.231,1.694-0.699
	c0.937-0.938,0.937-2.461,0-3.401l-4.056-4.055l4.06-4.058C22.255,27.672,22.255,26.165,21.415,25.219z M45.783,5.498L36.832-3.45
	C35.387-4.89,33.434-5.7,31.404-5.7H9.651c-4.238,0-7.675,3.437-7.675,7.678v46.046c0,4.236,3.437,7.677,7.677,7.677H40.35
	c4.219,0,7.674-3.455,7.674-7.677V10.922C48.023,8.896,47.221,6.94,45.783,5.498z M42.27,48.023c0,1.061-0.859,1.921-1.92,1.921
	H9.654c-1.062,0-1.92-0.86-1.92-1.921L7.733,1.991c0-1.06,0.858-1.918,1.918-1.918H28.84V9.65c0,2.119,1.717,3.838,3.836,3.838
	h9.484v34.535H42.27z M28.588,25.219c-0.939,0.933-0.939,2.453,0,3.392l4.049,4.064l-4.057,4.055c-0.94,0.94-0.94,2.464,0,3.4
	c0.475,0.471,1.086,0.7,1.695,0.7c0.615,0,1.229-0.231,1.695-0.699l5.756-5.756c0.936-0.939,0.936-2.461,0-3.399l-5.756-5.755
	C31.035,24.282,29.518,24.282,28.588,25.219z"/>
</svg>
