<?xml version="1.0" encoding="utf-8"?>
<!-- Generator: Adobe Illustrator 16.0.0, SVG Export Plug-In . SVG Version: 6.00 Build 0)  -->
<!DOCTYPE svg PUBLIC "-//W3C//DTD SVG 1.1//EN" "http://www.w3.org/Graphics/SVG/1.1/DTD/svg11.dtd">
<svg version="1.1" id="Layer_1" xmlns="http://www.w3.org/2000/svg" xmlns:xlink="http://www.w3.org/1999/xlink" x="0px" y="0px"
	 width="88px" height="88px" viewBox="-19 -19 88 88" enable-background="new -19 -19 88 88" xml:space="preserve">
<circle fill="#FFECEF" cx="25" cy="25" r="43.938"/>
<path fill="none" stroke="#F55767" stroke-width="2" stroke-miterlimit="10" d="M51.08,25c0,14.406-11.676,26.08-26.081,26.08
	C10.594,51.08-1.08,39.406-1.08,25S10.594-1.08,25-1.08C39.404-1.08,51.08,10.594,51.08,25z M31.52,34.779
	c0-2.736-1.68-5.084-4.074-6.041V7.884c0-1.354-1.09-2.443-2.444-2.443c-1.354,0-2.446,1.09-2.446,2.443v20.854
	c-2.392,0.969-4.074,3.313-4.074,6.043c0,3.596,2.923,6.52,6.519,6.52C28.596,41.301,31.52,38.377,31.52,34.779z M13.59,16.852
	c1.803,0,3.26-1.458,3.26-3.262s-1.457-3.26-3.26-3.26c-1.804,0-3.26,1.457-3.26,3.26S11.788,16.852,13.59,16.852z M11.961,25
	c0-1.803-1.457-3.261-3.26-3.261c-1.804,0-3.261,1.458-3.261,3.261c0,1.805,1.457,3.26,3.261,3.26
	C10.502,28.26,11.961,26.805,11.961,25z M41.299,28.26c1.805,0,3.264-1.455,3.264-3.26c0-1.803-1.459-3.261-3.264-3.261
	c-1.801,0-3.26,1.458-3.26,3.261C38.039,26.805,39.498,28.26,41.299,28.26z M39.67,13.59c0-1.803-1.459-3.26-3.262-3.26
	c-1.801,0-3.262,1.457-3.262,3.26s1.461,3.262,3.262,3.262C38.211,16.852,39.67,15.393,39.67,13.59z"/>
</svg>
