<?xml version="1.0" encoding="utf-8"?>
<!-- Generator: Adobe Illustrator 16.0.0, SVG Export Plug-In . SVG Version: 6.00 Build 0)  -->
<!DOCTYPE svg PUBLIC "-//W3C//DTD SVG 1.1//EN" "http://www.w3.org/Graphics/SVG/1.1/DTD/svg11.dtd">
<svg version="1.1" id="Layer_1" xmlns="http://www.w3.org/2000/svg" xmlns:xlink="http://www.w3.org/1999/xlink" x="0px" y="0px"
	 width="40px" height="40px" viewBox="0 0 40 40" enable-background="new 0 0 40 40" xml:space="preserve">
<path fill="#273043" d="M16.664,2.531c1.359,0.227,2.281,1.516,2.055,2.875L17.953,10h7.43l0.898-5.414
	c0.227-1.359,1.516-2.281,2.875-2.055c1.359,0.226,2.281,1.516,2.055,2.875L30.453,10H35c1.383,0,2.5,1.117,2.5,2.5S36.383,15,35,15
	h-5.383l-1.664,10H32.5c1.383,0,2.5,1.117,2.5,2.5S33.883,30,32.5,30h-5.383l-0.898,5.414c-0.227,1.359-1.516,2.281-2.875,2.055
	c-1.359-0.226-2.281-1.516-2.055-2.875l0.766-4.586h-7.438l-0.898,5.414c-0.227,1.359-1.516,2.281-2.875,2.055
	c-1.359-0.226-2.281-1.516-2.055-2.875L9.547,30H5c-1.383,0-2.5-1.117-2.5-2.5S3.617,25,5,25h5.383l1.664-10H7.5
	C6.117,15,5,13.883,5,12.5S6.117,10,7.5,10h5.383l0.898-5.414c0.227-1.359,1.516-2.281,2.875-2.055H16.664z M17.117,15l-1.664,10
	h7.43l1.664-10H17.117z"/>
</svg>
