<?xml version="1.0" encoding="utf-8"?>
<!-- Generator: Adobe Illustrator 16.0.0, SVG Export Plug-In . SVG Version: 6.00 Build 0)  -->
<!DOCTYPE svg PUBLIC "-//W3C//DTD SVG 1.1//EN" "http://www.w3.org/Graphics/SVG/1.1/DTD/svg11.dtd">
<svg version="1.1"
	 id="svg2" xmlns:dc="http://purl.org/dc/elements/1.1/" xmlns:cc="http://creativecommons.org/ns#" xmlns:rdf="http://www.w3.org/1999/02/22-rdf-syntax-ns#" xmlns:svg="http://www.w3.org/2000/svg" xmlns:sodipodi="http://sodipodi.sourceforge.net/DTD/sodipodi-0.dtd" xmlns:inkscape="http://www.inkscape.org/namespaces/inkscape" inkscape:version="0.48.4 r9939" sodipodi:docname="New document 1"
	 xmlns="http://www.w3.org/2000/svg" xmlns:xlink="http://www.w3.org/1999/xlink" x="0px" y="0px" width="50px" height="40px"
	 viewBox="0 0 50 40" enable-background="new 0 0 50 40" xml:space="preserve">
<title  id="title3842">Hamburger (Menu) Icon</title>
<sodipodi:namedview  pagecolor="#ffffff" bordercolor="#666666" borderopacity="1.0" inkscape:zoom="0.54" inkscape:cx="358.20459" inkscape:cy="473.54108" showgrid="false" showborder="true" fit-margin-top="5" fit-margin-left="5" id="base" inkscape:document-units="px" inkscape:pageopacity="0.0" inkscape:current-layer="layer1" inkscape:pageshadow="2" inkscape:showpageshadow="false" fit-margin-right="5" fit-margin-bottom="5" inkscape:window-width="1378" inkscape:window-height="882" inkscape:window-x="208" inkscape:window-y="58" inkscape:window-maximized="0">
	</sodipodi:namedview>
<g>
	<g>
		<path id="path3785-0-9_2_" inkscape:connector-curvature="0" fill="#242F51" d="M4.777,6.31h40.445l0,0"/>
		<path fill="#242F51" d="M45.223,8.823H4.777c-2.198,0-3.979-1.126-3.979-2.514c0-1.387,1.781-2.512,3.979-2.512h40.445
			c2.197,0,3.979,1.125,3.979,2.512C49.201,7.697,47.42,8.823,45.223,8.823z"/>
	</g>
	<g>
		<path id="path3785-0-9_3_" inkscape:connector-curvature="0" fill="#242F51" d="M4.777,33.688h40.445l0,0"/>
		<path fill="#242F51" d="M45.223,36.202H4.777c-2.198,0-3.979-1.127-3.979-2.514c0-1.389,1.781-2.514,3.979-2.514h40.445
			c2.197,0,3.979,1.125,3.979,2.514C49.201,35.075,47.42,36.202,45.223,36.202z"/>
	</g>
	<g>
		<path id="path3785-0-9_4_" inkscape:connector-curvature="0" fill="#242F51" d="M4.777,20.349h40.445l0,0"/>
		<path fill="#242F51" d="M45.223,22.862H4.777c-2.198,0-3.979-1.127-3.979-2.514c0-1.389,1.781-2.514,3.979-2.514h40.445
			c2.197,0,3.979,1.125,3.979,2.514C49.201,21.735,47.42,22.862,45.223,22.862z"/>
	</g>
</g>
</svg>
