<?xml version="1.0" encoding="utf-8"?>
<!-- Generator: Adobe Illustrator 16.0.0, SVG Export Plug-In . SVG Version: 6.00 Build 0)  -->
<!DOCTYPE svg PUBLIC "-//W3C//DTD SVG 1.1//EN" "http://www.w3.org/Graphics/SVG/1.1/DTD/svg11.dtd">
<svg version="1.1"
	 id="svg2" xmlns:dc="http://purl.org/dc/elements/1.1/" xmlns:cc="http://creativecommons.org/ns#" xmlns:rdf="http://www.w3.org/1999/02/22-rdf-syntax-ns#" xmlns:svg="http://www.w3.org/2000/svg" xmlns:sodipodi="http://sodipodi.sourceforge.net/DTD/sodipodi-0.dtd" xmlns:inkscape="http://www.inkscape.org/namespaces/inkscape" sodipodi:docname="New document 1" inkscape:version="0.48.4 r9939"
	 xmlns="http://www.w3.org/2000/svg" xmlns:xlink="http://www.w3.org/1999/xlink" x="0px" y="0px" width="50px" height="40px"
	 viewBox="130 109.672 50 40" enable-background="new 130 109.672 50 40" xml:space="preserve">
<title  id="title3842">Hamburger (Menu) Icon</title>
<sodipodi:namedview  fit-margin-left="5" fit-margin-top="5" showborder="true" showgrid="false" inkscape:cy="473.54108" inkscape:cx="358.20459" inkscape:zoom="0.54" borderopacity="1.0" bordercolor="#666666" pagecolor="#ffffff" id="base" inkscape:window-maximized="0" inkscape:window-y="58" inkscape:window-x="208" inkscape:window-height="882" inkscape:window-width="1378" fit-margin-bottom="5" fit-margin-right="5" inkscape:showpageshadow="false" inkscape:pageshadow="2" inkscape:current-layer="layer1" inkscape:pageopacity="0.0" inkscape:document-units="px">
	</sodipodi:namedview>
<g>
	<g>
		<path id="path3785-0-9_2_" inkscape:connector-curvature="0" fill="#FFFFFF" d="M134.778,115.982h40.445l0,0"/>
		<path fill="#2500F9" d="M175.223,118.496h-40.445c-2.199,0-3.98-1.126-3.98-2.513c0-1.388,1.781-2.513,3.98-2.513h40.445
			c2.197,0,3.979,1.125,3.979,2.513C179.201,117.37,177.42,118.496,175.223,118.496z"/>
	</g>
	<g>
		<path id="path3785-0-9_3_" inkscape:connector-curvature="0" fill="#FFFFFF" d="M134.778,143.361h40.445l0,0"/>
		<path fill="#2500F9" d="M175.223,145.875h-40.445c-2.199,0-3.98-1.127-3.98-2.514c0-1.389,1.781-2.514,3.98-2.514h40.445
			c2.197,0,3.979,1.125,3.979,2.514C179.201,144.748,177.42,145.875,175.223,145.875z"/>
	</g>
	<g>
		<path id="path3785-0-9_4_" inkscape:connector-curvature="0" fill="#FFFFFF" d="M134.778,130.022h40.445l0,0"/>
		<path fill="#2500F9" d="M175.223,132.535h-40.445c-2.199,0-3.98-1.127-3.98-2.513c0-1.389,1.781-2.514,3.98-2.514h40.445
			c2.197,0,3.979,1.125,3.979,2.514C179.201,131.408,177.42,132.535,175.223,132.535z"/>
	</g>
</g>
</svg>
