<?xml version="1.0" encoding="utf-8"?>
<!-- Generator: Adobe Illustrator 16.0.0, SVG Export Plug-In . SVG Version: 6.00 Build 0)  -->
<!DOCTYPE svg PUBLIC "-//W3C//DTD SVG 1.1//EN" "http://www.w3.org/Graphics/SVG/1.1/DTD/svg11.dtd">
<svg version="1.1" id="Layer_1" xmlns="http://www.w3.org/2000/svg" xmlns:xlink="http://www.w3.org/1999/xlink" x="0px" y="0px"
	 width="88px" height="88px" viewBox="-19 -19 88 88" enable-background="new -19 -19 88 88" xml:space="preserve">
<circle fill="#F4F4FF" cx="25" cy="25" r="43.959"/>
<path fill="none" stroke="#000000" stroke-width="1.8" stroke-miterlimit="10" d="M8.596,15.157c0-1.814,1.466-3.281,3.28-3.281
	h13.123c1.816,0,3.281,1.467,3.281,3.281V25c0,1.815-1.465,3.28-3.281,3.28H11.876c-1.814,0-3.28-1.465-3.28-3.28V15.157z
	 M24.999,31.562c3.62,0,6.563-2.942,6.563-6.562v-3.281h6.562c1.814,0,3.28,1.466,3.28,3.281v9.843c0,1.813-1.466,3.281-3.28,3.281
	H24.999c-1.814,0-3.28-1.468-3.28-3.281v-3.281H24.999z M0.393,10.626c-1.006-0.995-1.64-2.213-1.64-3.671
	c0-2.718,2.203-4.921,4.921-4.921c1.458,0,2.676,0.633,3.671,1.64h35.31c0.902-1.007,2.214-1.64,3.671-1.64
	c2.717,0,4.922,2.203,4.922,4.921c0,1.458-0.637,2.676-1.641,3.671v28.748c1.004,0.901,1.641,2.215,1.641,3.67
	c0,2.718-2.205,4.922-4.922,4.922c-1.457,0-2.769-0.636-3.671-1.641H7.345c-0.995,1.005-2.213,1.641-3.671,1.641
	c-2.718,0-4.921-2.204-4.921-4.922c0-1.455,0.634-2.769,1.64-3.67V10.626z M5.314,11.6V38.4c1.395,0.503,2.501,1.61,3.004,3.004
	h33.362c0.503-1.394,1.61-2.501,3.003-3.004V11.6c-1.393-0.503-2.5-1.61-3.003-3.004H8.318C7.815,9.989,6.709,11.097,5.314,11.6z"/>
</svg>
