<?xml version="1.0" encoding="utf-8"?>
<!-- Generator: Adobe Illustrator 16.0.0, SVG Export Plug-In . SVG Version: 6.00 Build 0)  -->
<!DOCTYPE svg PUBLIC "-//W3C//DTD SVG 1.1//EN" "http://www.w3.org/Graphics/SVG/1.1/DTD/svg11.dtd">
<svg version="1.1" id="Layer_1" xmlns="http://www.w3.org/2000/svg" xmlns:xlink="http://www.w3.org/1999/xlink" x="0px" y="0px"
	 width="88px" height="88px" viewBox="-19 -19 88 88" enable-background="new -19 -19 88 88" xml:space="preserve">
<circle fill="#F4F4FF" cx="25" cy="25" r="43.938"/>
<path fill="none" stroke="#2563FF" stroke-width="1.5" stroke-miterlimit="10" d="M35.631,4.201c2.506-2.51,6.579-2.51,9.09,0
	l1.076,1.082c2.512,2.511,2.512,6.582,0,9.09L28.191,31.986c-0.775,0.771-1.73,1.332-2.784,1.637l-8.929,2.554
	c-0.75,0.212-1.554,0-2.105-0.625c-0.545-0.474-0.76-1.278-0.545-2.028l2.553-8.929c0.307-1.052,0.867-2.008,1.635-2.783
	L35.631,4.201z M41.607,7.231c-0.756-0.836-2.113-0.836-2.951,0l-2.6,2.598l4.116,4.115l2.601-2.678
	c0.836-0.759,0.836-2.115,0-2.953L41.607,7.231z M20.506,25.773l-1.5,5.223l5.223-1.499c0.356-0.099,0.67-0.285,0.93-0.545
	l11.988-11.981l-4.114-4.117L21.05,24.844C20.792,25.104,20.604,25.417,20.506,25.773z M20.175,7.686
	c1.188,0,2.144,0.959,2.144,2.143c0,1.188-0.955,2.143-2.144,2.143h-9.999c-1.973,0-3.57,1.598-3.57,3.571v24.287
	c0,1.972,1.598,3.569,3.57,3.569h24.283c1.975,0,3.57-1.599,3.57-3.569V29.827c0-1.188,0.957-2.142,2.145-2.142
	s2.143,0.953,2.143,2.142v10.001c0,4.337-3.519,7.854-7.856,7.854H10.176c-4.339,0-7.856-3.518-7.856-7.854V15.542
	c0-4.339,3.518-7.856,7.856-7.856H20.175z"/>
</svg>
