<?xml version="1.0" encoding="utf-8"?>
<!-- Generator: Adobe Illustrator 16.0.0, SVG Export Plug-In . SVG Version: 6.00 Build 0)  -->
<!DOCTYPE svg PUBLIC "-//W3C//DTD SVG 1.1//EN" "http://www.w3.org/Graphics/SVG/1.1/DTD/svg11.dtd">
<svg version="1.1" id="Layer_1" xmlns="http://www.w3.org/2000/svg" xmlns:xlink="http://www.w3.org/1999/xlink" x="0px" y="0px"
	 width="88px" height="88px" viewBox="-19 -19 88 88" enable-background="new -19 -19 88 88" xml:space="preserve">
<circle fill="#E4FFEE" cx="25.021" cy="25.022" r="43.938"/>
<path fill="none" stroke="#000000" stroke-width="1.8" stroke-miterlimit="10" d="M7.677,0.489C6.75-0.234,5.431-0.146,4.591,0.684
	L0.685,4.59c-0.83,0.83-0.918,2.148-0.205,3.086l7.813,10.156c0.439,0.576,1.133,0.918,1.855,0.918h5.283l10.644,10.645
	c-1.435,2.832-0.976,6.387,1.396,8.75l10.938,10.938c1.221,1.221,3.203,1.221,4.424,0l6.25-6.25c1.221-1.221,1.221-3.203,0-4.424
	L38.146,27.472c-2.363-2.364-5.918-2.833-8.75-1.396L18.751,15.43v-5.273c0-0.732-0.342-1.416-0.918-1.855L7.677,0.489z
	 M1.945,38.683c-1.24,1.24-1.943,2.93-1.943,4.688c0,3.662,2.969,6.631,6.631,6.631c1.758,0,3.447-0.703,4.688-1.943l11.504-11.504
	c-0.762-2.041-0.879-4.258-0.352-6.357l-6.025-6.026L1.945,38.683z M50.001,14.063c0-1.025-0.107-2.021-0.313-2.979
	c-0.234-1.094-1.572-1.377-2.363-0.586l-6.24,6.24c-0.293,0.293-0.693,0.459-1.104,0.459h-5.605c-0.859,0-1.563-0.703-1.563-1.563
	V10.02c0-0.41,0.166-0.811,0.459-1.104l6.24-6.24c0.791-0.791,0.508-2.129-0.586-2.363C37.96,0.108,36.964,0,35.938,0
	c-7.764,0-14.062,6.299-14.062,14.063v0.078l8.33,8.33c3.516-0.889,7.402,0.049,10.156,2.803l1.533,1.534
	C46.681,24.561,50.001,19.698,50.001,14.063z M10.158,42.188c0,1.299-1.045,2.344-2.344,2.344S5.47,43.487,5.47,42.188
	s1.045-2.344,2.344-2.344S10.158,40.89,10.158,42.188z"/>
</svg>
