<?xml version="1.0" encoding="utf-8"?>
<!-- Generator: Adobe Illustrator 16.0.0, SVG Export Plug-In . SVG Version: 6.00 Build 0)  -->
<!DOCTYPE svg PUBLIC "-//W3C//DTD SVG 1.1//EN" "http://www.w3.org/Graphics/SVG/1.1/DTD/svg11.dtd">
<svg version="1.1" id="Layer_1" xmlns="http://www.w3.org/2000/svg" xmlns:xlink="http://www.w3.org/1999/xlink" x="0px" y="0px"
	 width="612px" height="792px" viewBox="0 0 612 792" enable-background="new 0 0 612 792" xml:space="preserve">
<path fill="#FFCC00" d="M336.706,143.125c-5.631-11.688-17.531-19.125-30.6-19.125c-13.069,0-24.863,7.438-30.6,19.125
	l-68.319,140.569L54.612,306.219c-12.75,1.913-23.375,10.837-27.306,23.056s-0.744,25.712,8.394,34.744l110.712,109.544
	l-26.138,154.807c-2.125,12.75,3.188,25.712,13.707,33.256c10.519,7.544,24.438,8.5,35.912,2.443l136.319-72.781l136.318,72.781
	c11.475,6.057,25.394,5.207,35.912-2.443c10.52-7.65,15.832-20.506,13.707-33.256l-26.244-154.807l110.713-109.544
	c9.137-9.031,12.431-22.525,8.394-34.744c-4.038-12.219-14.557-21.144-27.307-23.056l-152.681-22.525L336.706,143.125z"/>
</svg>
