<?xml version="1.0" encoding="utf-8"?>
<!-- Generator: Adobe Illustrator 16.0.0, SVG Export Plug-In . SVG Version: 6.00 Build 0)  -->
<!DOCTYPE svg PUBLIC "-//W3C//DTD SVG 1.1//EN" "http://www.w3.org/Graphics/SVG/1.1/DTD/svg11.dtd">
<svg version="1.1" id="Layer_1" xmlns="http://www.w3.org/2000/svg" xmlns:xlink="http://www.w3.org/1999/xlink" x="0px" y="0px"
	 width="40px" height="40px" viewBox="0 0 40 40" enable-background="new 0 0 40 40" xml:space="preserve">
<path fill="#273043" d="M35.889,11.853c0.025,0.355,0.025,0.71,0.025,1.066c0,10.837-8.249,23.325-23.325,23.325
	c-4.645,0-8.959-1.346-12.589-3.681c0.66,0.076,1.294,0.102,1.979,0.102c3.833,0,7.36-1.294,10.178-3.503
	c-3.604-0.076-6.624-2.436-7.665-5.686C5,23.553,5.508,23.604,6.041,23.604c0.736,0,1.472-0.102,2.157-0.279
	c-3.756-0.761-6.573-4.06-6.573-8.045v-0.102c1.091,0.609,2.36,0.99,3.706,1.041c-2.208-1.472-3.655-3.985-3.655-6.828
	c0-1.522,0.406-2.918,1.117-4.137c4.035,4.975,10.102,8.223,16.903,8.579c-0.127-0.609-0.203-1.244-0.203-1.878
	c0-4.518,3.654-8.198,8.198-8.198c2.36,0,4.492,0.99,5.989,2.589c1.854-0.355,3.63-1.041,5.203-1.979
	c-0.609,1.903-1.903,3.502-3.604,4.518C36.929,8.706,38.527,8.249,40,7.614C38.883,9.239,37.487,10.685,35.889,11.853z"/>
</svg>
