<?xml version="1.0" encoding="utf-8"?>
<!-- Generator: Adobe Illustrator 16.0.0, SVG Export Plug-In . SVG Version: 6.00 Build 0)  -->
<!DOCTYPE svg PUBLIC "-//W3C//DTD SVG 1.1//EN" "http://www.w3.org/Graphics/SVG/1.1/DTD/svg11.dtd">
<svg version="1.1" id="Layer_1" xmlns="http://www.w3.org/2000/svg" xmlns:xlink="http://www.w3.org/1999/xlink" x="0px" y="0px"
	 width="35px" height="35px" viewBox="382.5 382.5 35 35" enable-background="new 382.5 382.5 35 35" xml:space="preserve">
<g>
	<path fill="#47495F" d="M382.81,383.821c0-0.559,0.453-1.011,1.011-1.011h6.067c0.559,0,1.011,0.452,1.011,1.011
		s-0.452,1.012-1.011,1.012h-5.056v5.055c0,0.56-0.453,1.012-1.011,1.012s-1.011-0.452-1.011-1.012V383.821z"/>
	<path fill="#47495F" d="M416.178,382.811c0.559,0,1.012,0.452,1.012,1.011v6.066c0,0.56-0.453,1.012-1.012,1.012
		c-0.557,0-1.01-0.452-1.01-1.012v-5.055h-5.057c-0.557,0-1.012-0.453-1.012-1.012s0.455-1.011,1.012-1.011H416.178z"/>
	<path fill="#47495F" d="M383.821,417.189c-0.559,0-1.011-0.452-1.011-1.012v-6.066c0-0.558,0.453-1.011,1.011-1.011
		s1.011,0.453,1.011,1.011v5.057h5.056c0.559,0,1.011,0.452,1.011,1.01c0,0.56-0.452,1.012-1.011,1.012H383.821z"/>
	<path fill="#47495F" d="M417.189,416.178c0,0.56-0.453,1.012-1.012,1.012h-6.066c-0.557,0-1.012-0.452-1.012-1.012
		c0-0.558,0.455-1.01,1.012-1.01h5.057v-5.057c0-0.558,0.453-1.011,1.01-1.011c0.559,0,1.012,0.453,1.012,1.011V416.178z"/>
	<path fill="#47495F" d="M395.458,393.053c0.316-0.18,0.705-0.175,1.019,0.013l10.11,6.067c0.307,0.183,0.492,0.513,0.492,0.867
		s-0.186,0.685-0.492,0.867l-10.11,6.066c-0.314,0.188-0.703,0.193-1.019,0.014c-0.317-0.18-0.513-0.517-0.513-0.88v-12.135
		C394.944,393.569,395.14,393.232,395.458,393.053z M396.966,395.719v8.562l7.135-4.28L396.966,395.719z"/>
</g>
</svg>
